<svg xmlns="http://www.w3.org/2000/svg" fill="none" viewBox="0 0 121 30" height="30" width="121">
<path fill="#042A2B" d="M9.46446 29.5061V2.13714H8.21687C3.8288 2.13714 3.6137 7.62823 0.516243 7.62823H0V0.494141H27.1028V7.62823H26.5865C23.9623 7.62823 22.4566 2.13714 18.8859 2.13714H17.6383V29.4629H9.42144L9.46446 29.5061Z"></path>
<path fill="#042A2B" d="M29.9332 29.5061V0.494141H38.1501V29.5061H29.9332Z"></path>
<path fill="#042A2B" d="M40.9803 29.5061V0.494141H49.1972C53.9294 0.494141 60.6836 1.70477 64.2973 0.494141V8.75239H64.0822C60.0813 8.75239 58.4035 2.4398 50.6169 2.18038H49.2402V12.3411H53.6713C54.7898 12.3411 58.1024 12.4708 59.35 9.66036H59.7802V16.7945H59.35C58.1024 13.9408 54.7898 13.9841 53.6713 13.9841H49.2402V27.8199C57.0269 27.3875 60.3394 21.2046 64.3833 21.2046H64.9426V29.4629C59.6511 27.474 54.3596 29.2467 49.2402 29.4629H41.0233L40.9803 29.5061Z"></path>
<path fill="#042A2B" d="M77.2377 29.5061V2.13714H75.9901C71.602 2.13714 71.3869 7.62823 68.2895 7.62823H67.7732V0.494141H94.876V7.62823H94.3598C91.7355 7.62823 90.2298 2.13714 86.6591 2.13714H85.4115V29.4629H77.1947L77.2377 29.5061Z"></path>
<path fill="#042A2B" d="M90.6301 29.5061L101.815 0.494141H107.924L120.228 29.5061H112.011C112.011 26.566 112.656 22.2423 112.269 17.7024H103.02L98.5458 29.5061H90.6731H90.6301ZM103.622 16.0594H112.054C111.839 14.6326 111.495 13.1193 110.936 11.7357L107.924 4.68812L103.622 16.1027V16.0594Z"></path>
</svg>
