<svg width="384" height="57" viewBox="0 0 384 57" fill="none" xmlns="http://www.w3.org/2000/svg">
<path d="M51.3444 46.5724C50.0046 48.3271 48.6366 49.9574 46.5471 50.77C45.3796 50.77 44.7474 50.7224 43.8487 49.9642C43.4292 48.994 43.5682 48.4876 43.8487 47.4719C44.3529 46.8508 44.8358 46.3197 45.4041 45.7666C48.8717 42.1937 50.279 38.0611 50.2259 33.1189C49.998 28.3703 47.833 22.9727 44.4484 19.5881C44.419 19.917 44.3896 20.2459 44.3594 20.5848C44.3143 21.0209 44.269 21.457 44.2235 21.893C44.1957 22.2174 44.1957 22.2174 44.1673 22.5483C44.0101 23.9822 43.7355 24.852 42.6494 25.8844C41.6188 26.1281 41.6188 26.1281 40.5506 25.8844C39.2634 24.0647 38.2754 22.0629 37.2385 20.0931C35.5335 16.8571 33.7642 13.6742 31.8668 10.5458C31.7159 10.2959 31.565 10.0461 31.4095 9.78874C31.2779 9.57368 31.1464 9.35862 31.0109 9.13704C30.2789 7.81043 29.9307 6.9868 30.3566 5.49631C33.2111 4.59488 36.6527 7.06756 39.1639 8.2697C39.5064 8.43009 39.8488 8.59049 40.2016 8.75574C46.123 11.5886 46.1231 11.5886 47.7464 13.5916C47.6731 14.5936 47.5649 14.9724 46.847 15.6904C46.8067 16.4187 46.8067 16.4187 47.1468 17.1895C47.5679 17.5405 47.9909 17.8895 48.4246 18.2248C56.0038 24.9695 56.6711 38.4933 51.3444 46.5724Z" fill="url(#paint0_linear_47_95)"/>
<path d="M28.2391 9.64505C27.8453 9.65231 27.4515 9.65731 27.0577 9.66146C26.8384 9.6645 26.6191 9.66755 26.3932 9.67069C25.6118 9.64498 24.8537 9.54733 24.0793 9.445C20.2552 9.02265 15.6739 9.07772 12.4869 11.4828C10.7745 12.9528 10.0044 14.9091 9.76097 17.1222C9.55702 23.5738 9.97632 26.3005 14.21 30.9566C14.3153 31.0686 15.283 32.8102 15.3914 32.9256C14.6205 30.6087 13.9568 33.0271 13.9475 32.6631C14.21 29.1188 17.3841 28.7094 19.0503 26.71C20.1367 25.8098 21.3454 25.6253 22.7258 25.6599C24.0107 25.8966 25.0824 26.4124 25.8736 27.4932C27.1178 29.9772 27.2237 33.2456 27.5992 35.9809C27.6543 36.3725 27.7095 36.7641 27.7648 37.1556C27.9273 38.3113 28.0842 39.4678 28.2391 40.6245C28.2647 40.8138 28.2903 41.0031 28.3167 41.1981C28.8562 45.2132 28.8562 45.2132 28.8462 47.2208C28.8505 47.4015 28.8547 47.5822 28.8591 47.7684C28.8602 48.9986 28.6643 49.8413 27.9766 50.8635C26.8465 51.7592 26.1064 52.0445 24.6703 52.037C24.331 52.0378 23.9916 52.0386 23.642 52.0393C23.2741 52.0349 22.9061 52.0302 22.5382 52.0254C22.1555 52.0241 21.7728 52.0233 21.3901 52.0228C20.5879 52.0208 19.7858 52.0154 18.9836 52.0073C17.9669 51.997 16.9503 51.9922 15.9335 51.9896C14.9518 51.987 13.9701 51.9818 12.9883 51.9762C12.8065 51.9753 12.6246 51.9744 12.4372 51.9735C4.69407 51.9278 4.69407 51.9278 3.03549 50.6009C1.63506 49.1248 1.35043 47.7658 1.39566 45.784C1.51693 44.4769 1.99973 43.7733 2.88781 42.8397C4.50238 41.5852 6.629 40.9876 8.54879 40.362C6.65205 37.1556 4.84422 34.4087 6.46515 37.1556C1.63168 29.0876 -1.0363 23.7692 1.36181 13.9769C1.87798 12.3813 2.56891 10.996 3.56057 9.64505C3.69526 9.45959 3.82996 9.27413 3.96873 9.08305C6.45609 5.96493 10.2255 4.63991 14.0621 4.13175C15.2663 4.04965 16.4651 4.03166 17.672 4.0333C17.9956 4.03373 18.3192 4.03415 18.6526 4.03458C21.0472 4.0668 23.1182 4.2978 25.3512 5.18191C25.5702 5.26685 25.7891 5.3518 26.0147 5.43932C27.1325 5.93452 27.8433 6.51772 28.5017 7.54475C28.8187 8.49599 28.6443 8.76331 28.2391 9.64505Z" fill="url(#paint1_linear_47_95)"/>
<path d="M73.4056 45.0361V20.4888H64.1223V13.7941H90.4995V20.4888H80.993V45.0361H73.4056ZM92.45 45.0361V21.3368H99.234L99.5464 29.0581L98.2075 27.5852C98.5645 26.3058 99.1447 25.1603 99.9481 24.1486C100.781 23.137 101.748 22.3336 102.849 21.7385C103.95 21.1434 105.125 20.8459 106.375 20.8459C106.911 20.8459 107.402 20.8905 107.848 20.9798C108.324 21.0691 108.755 21.1732 109.142 21.2922L107.178 29.192C106.851 28.9837 106.405 28.82 105.839 28.701C105.304 28.5523 104.739 28.4779 104.143 28.4779C103.489 28.4779 102.879 28.5969 102.314 28.8349C101.748 29.0432 101.272 29.3556 100.885 29.7722C100.499 30.1887 100.186 30.6797 99.9481 31.245C99.7398 31.8104 99.6357 32.4501 99.6357 33.1642V45.0361H92.45ZM113.162 45.0361V21.3368H120.303V45.0361H113.162ZM116.733 16.6505C115.394 16.6505 114.338 16.3381 113.564 15.7133C112.82 15.0587 112.448 14.1363 112.448 12.9461C112.448 11.875 112.835 10.9972 113.609 10.3129C114.382 9.62853 115.424 9.28636 116.733 9.28636C118.072 9.28636 119.113 9.61366 119.857 10.2683C120.601 10.8931 120.973 11.7857 120.973 12.9461C120.973 14.047 120.586 14.9397 119.813 15.624C119.069 16.3084 118.042 16.6505 116.733 16.6505ZM127.013 54.855V21.3368H133.797L134.065 26.648L132.726 26.2463C132.934 25.2644 133.44 24.3718 134.243 23.5684C135.047 22.7651 136.059 22.1253 137.278 21.6493C138.528 21.1434 139.837 20.8905 141.206 20.8905C143.229 20.8905 145.029 21.4261 146.606 22.4973C148.183 23.5387 149.418 24.9817 150.311 26.8265C151.233 28.6415 151.694 30.7541 151.694 33.1642C151.694 35.5445 151.233 37.6571 150.311 39.5018C149.418 41.3466 148.168 42.8046 146.562 43.8757C144.985 44.9171 143.17 45.4378 141.117 45.4378C139.778 45.4378 138.498 45.1849 137.278 44.6791C136.059 44.1733 135.032 43.4889 134.199 42.626C133.366 41.7632 132.815 40.8259 132.547 39.8143L134.199 39.1894V54.855H127.013ZM139.376 39.4126C140.447 39.4126 141.385 39.1597 142.188 38.6538C142.991 38.1183 143.616 37.3893 144.062 36.4669C144.509 35.5445 144.732 34.4436 144.732 33.1642C144.732 31.9145 144.509 30.8285 144.062 29.9061C143.616 28.9539 142.991 28.225 142.188 27.7191C141.414 27.1836 140.477 26.9158 139.376 26.9158C138.275 26.9158 137.323 27.1687 136.52 27.6745C135.716 28.1803 135.091 28.9093 134.645 29.8614C134.199 30.8136 133.976 31.9145 133.976 33.1642C133.976 34.4436 134.199 35.5445 134.645 36.4669C135.091 37.3893 135.716 38.1183 136.52 38.6538C137.323 39.1597 138.275 39.4126 139.376 39.4126ZM185.993 45.4824C183.494 45.4824 181.233 45.0808 179.209 44.2774C177.186 43.474 175.445 42.3434 173.987 40.8854C172.529 39.4275 171.414 37.7166 170.64 35.7528C169.866 33.7593 169.48 31.6021 169.48 29.2812C169.48 26.9604 169.881 24.833 170.685 22.8989C171.518 20.9352 172.693 19.2243 174.211 17.7663C175.728 16.3084 177.513 15.1777 179.566 14.3743C181.649 13.571 183.91 13.1693 186.35 13.1693C188.076 13.1693 189.698 13.3925 191.215 13.8388C192.762 14.2851 194.161 14.895 195.411 15.6687C196.66 16.4423 197.716 17.3349 198.579 18.3465L193.982 23.2114C193.238 22.4973 192.465 21.9022 191.661 21.4261C190.888 20.95 190.055 20.5781 189.162 20.3103C188.269 20.0128 187.317 19.864 186.306 19.864C184.997 19.864 183.791 20.102 182.691 20.5781C181.619 21.0542 180.667 21.7237 179.834 22.5865C179.031 23.4196 178.406 24.4164 177.96 25.5768C177.513 26.7075 177.29 27.9423 177.29 29.2812C177.29 30.6202 177.528 31.8699 178.004 33.0303C178.48 34.1907 179.135 35.2023 179.968 36.0652C180.801 36.8983 181.783 37.5678 182.914 38.0736C184.074 38.5497 185.309 38.7877 186.618 38.7877C187.541 38.7877 188.403 38.639 189.207 38.3414C190.04 38.0439 190.754 37.6422 191.349 37.1364C191.944 36.6305 192.42 36.0355 192.777 35.3511C193.134 34.637 193.313 33.8783 193.313 33.0749V31.9145L194.295 33.432H185.681V27.496H200.365C200.424 27.8233 200.469 28.2696 200.498 28.8349C200.528 29.4003 200.543 29.9507 200.543 30.4863C200.573 31.0219 200.588 31.4235 200.588 31.6913C200.588 33.7146 200.216 35.5743 199.472 37.2703C198.758 38.9365 197.746 40.3796 196.437 41.5995C195.128 42.8194 193.581 43.7716 191.795 44.4559C190.01 45.1403 188.076 45.4824 185.993 45.4824ZM213.72 45.5271C211.964 45.5271 210.461 45.1551 209.212 44.4113C207.992 43.6377 207.04 42.5368 206.355 41.1086C205.701 39.6804 205.373 37.9695 205.373 35.976V21.3368H212.559V34.9941C212.559 35.9462 212.708 36.7644 213.005 37.4488C213.303 38.1331 213.749 38.6687 214.344 39.0555C214.939 39.4126 215.654 39.5911 216.487 39.5911C217.111 39.5911 217.677 39.487 218.183 39.2787C218.718 39.0704 219.165 38.7877 219.522 38.4307C219.908 38.0439 220.206 37.6124 220.414 37.1364C220.622 36.6305 220.727 36.0801 220.727 35.485V21.3368H227.912V45.0361H221.173L220.861 40.1713L222.199 39.6357C221.842 40.7664 221.247 41.778 220.414 42.6707C219.581 43.5335 218.584 44.2328 217.424 44.7683C216.263 45.2742 215.029 45.5271 213.72 45.5271ZM243.025 45.4378C241.031 45.4378 239.246 44.9171 237.669 43.8757C236.122 42.8046 234.887 41.3466 233.964 39.5018C233.042 37.6273 232.581 35.5148 232.581 33.1642C232.581 30.7541 233.042 28.6266 233.964 26.7819C234.887 24.9371 236.151 23.494 237.758 22.4526C239.365 21.3815 241.195 20.8459 243.248 20.8459C244.378 20.8459 245.405 21.0095 246.327 21.3368C247.279 21.6641 248.113 22.1253 248.827 22.7204C249.541 23.2858 250.151 23.9552 250.657 24.7288C251.162 25.4727 251.534 26.2761 251.772 27.1389L250.299 26.9604V21.3368H257.396V45.0361H250.166V39.3233L251.772 39.2787C251.534 40.1118 251.147 40.9003 250.612 41.6441C250.076 42.388 249.422 43.0426 248.648 43.6079C247.875 44.1733 247.012 44.6196 246.06 44.9469C245.107 45.2742 244.096 45.4378 243.025 45.4378ZM244.988 39.4126C246.089 39.4126 247.041 39.1597 247.845 38.6538C248.648 38.148 249.273 37.4339 249.719 36.5115C250.166 35.5594 250.389 34.4436 250.389 33.1642C250.389 31.8847 250.166 30.7838 249.719 29.8614C249.273 28.9093 248.648 28.1803 247.845 27.6745C247.041 27.1389 246.089 26.8711 244.988 26.8711C243.917 26.8711 242.98 27.1389 242.177 27.6745C241.403 28.1803 240.793 28.9093 240.347 29.8614C239.9 30.7838 239.677 31.8847 239.677 33.1642C239.677 34.4436 239.9 35.5594 240.347 36.5115C240.793 37.4339 241.403 38.148 242.177 38.6538C242.98 39.1597 243.917 39.4126 244.988 39.4126ZM263.697 45.0361V21.3368H270.481L270.793 29.0581L269.454 27.5852C269.811 26.3058 270.392 25.1603 271.195 24.1486C272.028 23.137 272.995 22.3336 274.096 21.7385C275.197 21.1434 276.372 20.8459 277.622 20.8459C278.158 20.8459 278.648 20.8905 279.095 20.9798C279.571 21.0691 280.002 21.1732 280.389 21.2922L278.425 29.192C278.098 28.9837 277.652 28.82 277.086 28.701C276.551 28.5523 275.985 28.4779 275.39 28.4779C274.736 28.4779 274.126 28.5969 273.56 28.8349C272.995 29.0432 272.519 29.3556 272.132 29.7722C271.745 30.1887 271.433 30.6797 271.195 31.245C270.987 31.8104 270.883 32.4501 270.883 33.1642V45.0361H263.697ZM291.753 45.4378C289.759 45.4378 287.974 44.9171 286.397 43.8757C284.85 42.8046 283.615 41.3466 282.693 39.5018C281.77 37.6273 281.309 35.5148 281.309 33.1642C281.309 30.7541 281.77 28.6266 282.693 26.7819C283.615 24.9371 284.88 23.494 286.487 22.4526C288.093 21.3815 289.923 20.8459 291.976 20.8459C293.107 20.8459 294.133 21.0095 295.056 21.3368C296.008 21.6641 296.841 22.1253 297.555 22.7204C298.269 23.2858 298.879 23.9552 299.385 24.7288C299.891 25.4727 300.263 26.2761 300.501 27.1389L299.028 26.9604V21.3368H306.124V45.0361H298.894V39.3233L300.501 39.2787C300.263 40.1118 299.876 40.9003 299.34 41.6441C298.805 42.388 298.15 43.0426 297.377 43.6079C296.603 44.1733 295.74 44.6196 294.788 44.9469C293.836 45.2742 292.824 45.4378 291.753 45.4378ZM293.717 39.4126C294.818 39.4126 295.77 39.1597 296.573 38.6538C297.377 38.148 298.001 37.4339 298.448 36.5115C298.894 35.5594 299.117 34.4436 299.117 33.1642C299.117 31.8847 298.894 30.7838 298.448 29.8614C298.001 28.9093 297.377 28.1803 296.573 27.6745C295.77 27.1389 294.818 26.8711 293.717 26.8711C292.646 26.8711 291.708 27.1389 290.905 27.6745C290.131 28.1803 289.521 28.9093 289.075 29.8614C288.629 30.7838 288.406 31.8847 288.406 33.1642C288.406 34.4436 288.629 35.5594 289.075 36.5115C289.521 37.4339 290.131 38.148 290.905 38.6538C291.708 39.1597 292.646 39.4126 293.717 39.4126ZM312.425 45.0361V21.3368H319.209L319.433 26.157L318.004 26.6926C318.332 25.6215 318.912 24.6544 319.745 23.7916C320.608 22.8989 321.634 22.1848 322.825 21.6493C324.015 21.1137 325.264 20.8459 326.574 20.8459C328.359 20.8459 329.861 21.2178 331.081 21.9617C332.301 22.6758 333.224 23.7618 333.848 25.2198C334.473 26.648 334.786 28.4035 334.786 30.4863V45.0361H327.6V31.0665C327.6 30.1144 327.466 29.3259 327.198 28.701C326.931 28.0762 326.514 27.615 325.949 27.3175C325.413 26.9902 324.744 26.8414 323.94 26.8711C323.315 26.8711 322.735 26.9753 322.2 27.1836C321.664 27.3621 321.203 27.6448 320.816 28.0316C320.429 28.3886 320.117 28.8052 319.879 29.2812C319.671 29.7573 319.566 30.278 319.566 30.8433V45.0361H316.041C315.207 45.0361 314.493 45.0361 313.898 45.0361C313.303 45.0361 312.812 45.0361 312.425 45.0361ZM342.72 45.0361V15.3562H349.861V45.0361H342.72ZM338.524 27.5852V21.3368H354.458V27.5852H338.524ZM361.529 55.3014L366.929 42.5814L367.019 46.2412L355.593 21.3368H363.671L368.67 33.2534C368.938 33.8485 369.191 34.4882 369.429 35.1726C369.667 35.8569 369.845 36.5115 369.964 37.1364L368.982 37.7166C369.161 37.2703 369.354 36.7198 369.563 36.0652C369.801 35.3809 370.054 34.6519 370.321 33.8783L374.695 21.3368H382.818L372.731 45.0361L368.625 55.3014H361.529Z" fill="white"/>
<defs>
<linearGradient id="paint0_linear_47_95" x1="54.818" y1="28.0363" x2="30.1717" y2="28.0363" gradientUnits="userSpaceOnUse">
<stop stop-color="#FFD700"/>
<stop offset="1" stop-color="#F2B311"/>
</linearGradient>
<linearGradient id="paint1_linear_47_95" x1="28.8591" y1="28.0363" x2="0.467431" y2="28.0363" gradientUnits="userSpaceOnUse">
<stop stop-color="#EE9039"/>
<stop offset="1" stop-color="#EF6733"/>
</linearGradient>
</defs>
</svg>
